# Blender v2.70 (sub 0) OBJ File: 'walls.blend'
# www.blender.org
o Cube.013
v 195.507599 19.140007 80.085281
v 213.185272 19.140007 62.407612
v 213.892395 19.140007 63.114719
v 196.214706 19.140007 80.792389
v 195.507599 24.140007 80.085281
v 213.185272 24.140007 62.407612
v 213.892395 24.140007 63.114719
v 196.214706 24.140007 80.792389
vt 0.068348 0.997834
vt 0.068348 0.015968
vt 0.916122 0.015969
vt 0.916122 0.997835
vn -0.707107 0.000000 -0.707107
vn 0.707104 0.000000 -0.707110
vn 0.707106 0.000000 0.707107
vn -0.707111 0.000000 0.707102
vn 0.000000 -1.000000 -0.000000
vn 0.000000 1.000000 0.000000
vn 0.707097 0.000000 -0.707116
vn -0.707105 0.000000 0.707108
s off
f 6/1/1 2/2/1 1/3/1
f 7/1/2 3/2/2 2/2/2
f 8/4/3 4/3/3 3/2/3
f 5/4/4 1/3/4 4/3/4
f 1/3/5 2/2/5 3/2/5
f 7/1/6 6/1/6 5/4/6
f 5/4/1 6/1/1 1/3/1
f 6/1/7 7/1/7 2/2/7
f 7/1/3 8/4/3 3/2/3
f 8/4/8 5/4/8 4/3/8
f 4/3/5 1/3/5 3/2/5
f 8/4/6 7/1/6 5/4/6
o Cube.012
v 213.100006 19.139999 80.000000
v 213.100006 19.139999 -70.000000
v 214.100006 19.139999 -70.000000
v 214.100006 19.139999 80.000000
v 213.100006 24.139999 80.000000
v 213.100006 24.139999 -70.000000
v 214.100006 24.139999 -70.000000
v 214.100006 24.139999 80.000000
vt -1.917029 0.962690
vt -1.917029 0.022184
vt 2.955344 0.022215
vt 2.955344 0.962720
vn -1.000000 0.000000 0.000000
vn 0.000000 0.000000 -1.000000
vn 1.000000 0.000000 0.000000
vn 0.000000 0.000000 1.000000
vn 0.000000 -1.000000 0.000000
vn 0.000000 1.000000 0.000000
s off
f 14/5/9 10/6/9 9/7/9
f 15/5/10 11/6/10 10/6/10
f 16/8/11 12/7/11 11/6/11
f 13/8/12 9/7/12 12/7/12
f 10/6/13 11/6/13 12/7/13
f 15/5/14 14/5/14 13/8/14
f 13/8/9 14/5/9 9/7/9
f 14/5/10 15/5/10 10/6/10
f 15/5/11 16/8/11 11/6/11
f 16/8/12 13/8/12 12/7/12
f 9/7/13 10/6/13 12/7/13
f 16/8/14 15/5/14 13/8/14
o Cube.011
v 214.090637 19.139999 -70.000015
v 162.090637 19.139999 -69.999985
v 162.090637 19.139999 -70.999985
v 214.090637 19.139999 -71.000015
v 214.090637 24.139999 -70.000015
v 162.090637 24.139999 -69.999985
v 162.090637 24.139999 -70.999985
v 214.090637 24.139999 -71.000015
vt -0.367506 0.976341
vt -0.367506 0.001530
vt 1.383192 0.001530
vt 1.383192 0.976341
vn 0.000000 0.000000 1.000000
vn -1.000000 0.000000 0.000000
vn -0.000000 0.000000 -1.000000
vn 1.000000 0.000000 0.000000
vn 0.000000 -1.000000 0.000000
vn 0.000000 1.000000 0.000000
s off
f 22/9/15 18/10/15 17/11/15
f 23/9/16 19/10/16 18/10/16
f 24/12/17 20/11/17 19/10/17
f 21/12/18 17/11/18 20/11/18
f 18/10/19 19/10/19 20/11/19
f 23/9/20 22/9/20 21/12/20
f 21/12/15 22/9/15 17/11/15
f 22/9/16 23/9/16 18/10/16
f 23/9/17 24/12/17 19/10/17
f 24/12/18 21/12/18 20/11/18
f 17/11/19 18/10/19 20/11/19
f 24/12/20 23/9/20 21/12/20
o Cube.010
v 162.100006 19.139999 30.000000
v 162.100006 19.139999 -70.000000
v 163.100006 19.139999 -70.000000
v 163.100006 19.139999 30.000000
v 162.100006 24.139999 30.000000
v 162.100006 24.139999 -70.000000
v 163.100006 24.139999 -70.000000
v 163.100006 24.139999 30.000000
vt -1.160227 0.979569
vt -1.160227 0.031460
vt 2.114277 0.031482
vt 2.114275 0.979589
vt 2.114275 0.031482
vt 2.114277 0.979589
vn -1.000000 0.000000 0.000000
vn 0.000000 0.000000 -1.000000
vn 1.000000 0.000000 0.000000
vn 0.000000 0.000000 1.000000
vn 0.000000 -1.000000 0.000000
vn 0.000000 1.000000 0.000000
s off
f 30/13/21 26/14/21 25/15/21
f 31/13/22 27/14/22 26/14/22
f 32/16/23 28/17/23 27/14/23
f 29/18/24 25/15/24 28/17/24
f 26/14/25 27/14/25 28/17/25
f 31/13/26 30/13/26 29/18/26
f 29/18/21 30/13/21 25/15/21
f 30/13/22 31/13/22 26/14/22
f 31/13/23 32/16/23 27/14/23
f 32/16/24 29/18/24 28/17/24
f 25/15/25 26/14/25 28/17/25
f 32/16/26 31/13/26 29/18/26
o Cube.009
v 214.203400 19.139999 80.999985
v 162.203400 19.139999 81.000015
v 162.203400 19.139999 80.000015
v 214.203400 19.139999 79.999977
v 214.203400 24.139999 80.999985
v 162.203400 24.139999 81.000015
v 162.203400 24.139999 80.000015
v 214.203400 24.139999 79.999977
vt -0.340099 0.959900
vt -0.340099 0.013548
vt 1.359488 0.013548
vt 1.359488 0.959900
vn 0.000000 0.000000 1.000000
vn -1.000000 0.000000 0.000000
vn -0.000001 0.000000 -1.000000
vn 1.000000 0.000000 0.000000
vn 0.000000 -1.000000 0.000000
vn 0.000000 1.000000 0.000000
vn -0.000000 0.000000 -1.000000
s off
f 38/19/27 34/20/27 33/21/27
f 39/19/28 35/20/28 34/20/28
f 40/22/29 36/21/29 35/20/29
f 37/22/30 33/21/30 36/21/30
f 34/20/31 35/20/31 36/21/31
f 39/19/32 38/19/32 37/22/32
f 37/22/27 38/19/27 33/21/27
f 38/19/28 39/19/28 34/20/28
f 39/19/33 40/22/33 35/20/33
f 40/22/30 37/22/30 36/21/30
f 33/21/31 34/20/31 36/21/31
f 40/22/32 39/19/32 37/22/32
o Cube.008
v 39.983643 -2.494715 30.000000
v 39.983643 -2.494715 29.000000
v 163.084610 19.211319 29.000000
v 163.084610 19.211319 30.000000
v 39.115402 2.429324 30.000000
v 39.115402 2.429324 29.000000
v 162.216370 24.135357 29.000000
v 162.216370 24.135357 30.000000
vt -1.590793 0.960733
vt -1.590761 0.011488
vt 2.507246 0.965418
vt 2.507279 0.016172
vn -0.984808 -0.173649 0.000000
vn 0.000000 0.000000 -1.000000
vn 0.984807 0.173652 0.000000
vn 0.000000 0.000000 1.000000
vn 0.173648 -0.984808 0.000000
vn -0.173648 0.984808 0.000000
vn -0.984808 -0.173648 0.000000
vn 0.984808 0.173645 0.000000
s off
f 46/23/34 42/24/34 41/24/34
f 47/25/35 43/26/35 42/24/35
f 48/25/36 44/26/36 43/26/36
f 48/25/37 45/23/37 41/24/37
f 41/24/38 42/24/38 43/26/38
f 48/25/39 47/25/39 46/23/39
f 45/23/40 46/23/40 41/24/40
f 46/23/35 47/25/35 42/24/35
f 47/25/41 48/25/41 43/26/41
f 44/26/37 48/25/37 41/24/37
f 44/26/38 41/24/38 43/26/38
f 45/23/39 48/25/39 46/23/39
o Cube.007
v 24.000000 -2.500000 30.000000
v 24.000000 -2.500000 29.000000
v 40.000000 -2.500000 29.000000
v 40.000000 -2.500000 30.000000
v 24.000000 2.500000 30.000000
v 24.000000 2.500000 29.000000
v 40.000000 2.500000 29.000000
v 40.000000 2.500000 30.000000
vt 0.294809 0.973115
vt 0.294809 0.027240
vt 0.817496 0.973115
vt 0.817496 0.027240
vn -1.000000 0.000000 0.000000
vn 0.000000 0.000000 -1.000000
vn 1.000000 0.000000 0.000000
vn 0.000000 0.000000 1.000000
vn 0.000000 -1.000000 0.000000
vn 0.000000 1.000000 0.000000
s off
f 54/27/42 50/28/42 49/28/42
f 55/29/43 51/30/43 50/28/43
f 56/29/44 52/30/44 51/30/44
f 53/27/45 49/28/45 52/30/45
f 50/28/46 51/30/46 52/30/46
f 55/29/47 54/27/47 53/27/47
f 53/27/42 54/27/42 49/28/42
f 54/27/43 55/29/43 50/28/43
f 55/29/44 56/29/44 51/30/44
f 56/29/45 53/27/45 52/30/45
f 49/28/46 50/28/46 52/30/46
f 56/29/47 55/29/47 53/27/47
o Cube.006
v -50.000000 -2.500000 -20.991405
v -50.000000 -2.500000 -21.991409
v 25.000000 -2.500000 -21.991409
v 25.000000 -2.500000 -20.991405
v -50.000000 2.500000 -20.991405
v -50.000000 2.500000 -21.991409
v 25.000000 2.500000 -21.991409
v 25.000000 2.500000 -20.991405
vt -0.802202 0.984118
vt -0.802202 0.016237
vt 1.704892 0.984118
vt 1.704892 0.016237
vn -1.000000 0.000000 0.000000
vn 0.000000 0.000000 -1.000000
vn 1.000000 0.000000 0.000000
vn 0.000000 0.000000 1.000000
vn 0.000000 -1.000000 0.000000
vn 0.000000 1.000000 0.000000
s off
f 62/31/48 58/32/48 57/32/48
f 63/33/49 59/34/49 58/32/49
f 64/33/50 60/34/50 59/34/50
f 61/31/51 57/32/51 60/34/51
f 58/32/52 59/34/52 60/34/52
f 63/33/53 62/31/53 61/31/53
f 61/31/48 62/31/48 57/32/48
f 62/31/49 63/33/49 58/32/49
f 63/33/50 64/33/50 59/34/50
f 64/33/51 61/31/51 60/34/51
f 57/32/52 58/32/52 60/34/52
f 64/33/53 63/33/53 61/31/53
o Cube.005
v 24.000000 -2.500000 28.999998
v 24.000000 -2.500000 -21.000000
v 25.000000 -2.500000 -21.000000
v 25.000000 -2.500000 28.999998
v 24.000000 2.500000 28.999998
v 24.000000 2.500000 -21.000000
v 25.000000 2.500000 -21.000000
v 25.000000 2.500000 28.999998
vt -0.308558 0.974941
vt -0.308558 0.023226
vt 1.334925 0.023235
vt 1.334925 0.974952
vn -1.000000 0.000000 0.000000
vn 0.000000 0.000000 -1.000000
vn 1.000000 0.000000 0.000000
vn 0.000000 0.000000 1.000000
vn 0.000000 -1.000000 0.000000
vn 0.000000 1.000000 0.000000
s off
f 70/35/54 66/36/54 65/37/54
f 71/35/55 67/36/55 66/36/55
f 72/38/56 68/37/56 67/36/56
f 69/38/57 65/37/57 68/37/57
f 66/36/58 67/36/58 68/37/58
f 71/35/59 70/35/59 69/38/59
f 69/38/54 70/35/54 65/37/54
f 70/35/55 71/35/55 66/36/55
f 71/35/56 72/38/56 67/36/56
f 72/38/57 69/38/57 68/37/57
f 65/37/58 66/36/58 68/37/58
f 72/38/59 71/35/59 69/38/59
o Cube.004
v -50.000000 -2.500000 80.000000
v -50.000000 -2.500000 -21.000000
v -49.000000 -2.500000 -21.000000
v -49.000000 -2.500000 80.000000
v -50.000000 2.500000 80.000000
v -50.000000 2.500000 -21.000000
v -49.000000 2.500000 -21.000000
v -49.000000 2.500000 80.000000
vt -1.083800 0.954493
vt -1.083800 0.017520
vt 2.184606 0.017540
vt 2.184606 0.954514
vn -1.000000 0.000000 0.000000
vn 0.000000 0.000000 -1.000000
vn 1.000000 0.000000 0.000000
vn 0.000000 0.000000 1.000000
vn 0.000000 -1.000000 0.000000
vn 0.000000 1.000000 0.000000
s off
f 78/39/60 74/40/60 73/41/60
f 79/39/61 75/40/61 74/40/61
f 80/42/62 76/41/62 75/40/62
f 77/42/63 73/41/63 76/41/63
f 74/40/64 75/40/64 76/41/64
f 79/39/65 78/39/65 77/42/65
f 77/42/60 78/39/60 73/41/60
f 78/39/61 79/39/61 74/40/61
f 79/39/62 80/42/62 75/40/62
f 80/42/63 77/42/63 76/41/63
f 73/41/64 74/40/64 76/41/64
f 80/42/65 79/39/65 77/42/65
o Cube.003
v -32.114716 -2.500000 80.792389
v -49.792389 -2.500000 63.114719
v -49.085281 -2.500000 62.407612
v -31.407608 -2.500000 80.085281
v -32.114716 2.500000 80.792389
v -49.792389 2.500000 63.114719
v -49.085281 2.500000 62.407612
v -31.407608 2.500000 80.085281
vt 0.085562 0.972860
vt 0.085562 0.031969
vt 0.897957 0.031971
vt 0.897957 0.972862
vn -0.707107 0.000000 0.707107
vn -0.707105 0.000000 -0.707108
vn 0.707107 0.000000 -0.707107
vn 0.707105 0.000000 0.707108
vn 0.000000 -1.000000 0.000000
vn 0.000000 1.000000 0.000000
vn -0.707111 0.000000 -0.707102
vn 0.707111 0.000000 0.707102
s off
f 86/43/66 82/44/66 81/45/66
f 87/43/67 83/44/67 82/44/67
f 88/46/68 84/45/68 83/44/68
f 85/46/69 81/45/69 84/45/69
f 82/44/70 83/44/70 84/45/70
f 87/43/71 86/43/71 85/46/71
f 85/46/66 86/43/66 81/45/66
f 86/43/72 87/43/72 82/44/72
f 87/43/68 88/46/68 83/44/68
f 88/46/73 85/46/73 84/45/73
f 81/45/70 82/44/70 84/45/70
f 88/46/71 87/43/71 85/46/71
o Cube.002
v -50.000000 -2.500000 81.000000
v -50.000000 -2.500000 80.000000
v 40.000000 -2.500000 80.000000
v 40.000000 -2.500000 81.000000
v -50.000000 2.500000 81.000000
v -50.000000 2.500000 80.000000
v 40.000000 2.500000 80.000000
v 40.000000 2.500000 81.000000
vt 1.982059 0.014612
vt 1.982059 0.985743
vt -1.036559 0.014612
vt -1.036559 0.985743
vn -1.000000 0.000000 0.000000
vn 0.000000 0.000000 -1.000000
vn 1.000000 0.000000 0.000000
vn 0.000000 0.000000 1.000000
vn 0.000000 -1.000000 0.000000
vn 0.000000 1.000000 0.000000
s off
f 94/47/74 90/48/74 89/48/74
f 95/49/75 91/50/75 90/48/75
f 96/49/76 92/50/76 91/50/76
f 93/47/77 89/48/77 92/50/77
f 90/48/78 91/50/78 92/50/78
f 95/49/79 94/47/79 93/47/79
f 93/47/74 94/47/74 89/48/74
f 94/47/75 95/49/75 90/48/75
f 95/49/76 96/49/76 91/50/76
f 96/49/77 93/47/77 92/50/77
f 89/48/78 90/48/78 92/50/78
f 96/49/79 95/49/79 93/47/79
o Cube.001_Cube.000
v 39.983643 -2.494715 81.000000
v 39.983643 -2.494715 80.000000
v 163.084610 19.211319 80.000000
v 163.084610 19.211319 81.000000
v 39.115402 2.429324 81.000000
v 39.115402 2.429324 80.000000
v 162.216370 24.135357 80.000000
v 162.216370 24.135357 81.000000
vt 0.811403 0.018724
vt 0.811403 0.965198
vt -3.274676 0.018601
vt -3.274676 0.965074
vt 0.811403 0.965197
vn -0.984808 -0.173647 0.000000
vn 0.000000 0.000000 -1.000000
vn 0.984808 0.173644 0.000000
vn -0.000000 0.000000 1.000000
vn 0.173648 -0.984808 0.000000
vn -0.173648 0.984808 0.000000
vn -0.984808 -0.173649 0.000000
vn 0.984807 0.173652 0.000000
s off
f 101/51/80 102/51/80 98/52/80
f 102/51/81 103/53/81 99/54/81
f 103/53/82 104/53/82 100/54/82
f 104/53/83 101/51/83 97/55/83
f 98/52/84 99/54/84 100/54/84
f 104/53/85 103/53/85 102/51/85
f 97/55/86 101/51/86 98/52/86
f 98/52/81 102/51/81 99/54/81
f 99/54/87 103/53/87 100/54/87
f 100/54/83 104/53/83 97/55/83
f 97/55/84 98/52/84 100/54/84
f 101/51/85 104/53/85 102/51/85
