# Blender v2.70 (sub 0) OBJ File: 'greens.blend'
# www.blender.org
o Plane
v 15.000015 0.000000 24.999960
v 14.999985 0.000000 -25.000040
v -108.999985 0.000000 25.000040
v -109.000015 0.000000 -24.999960
v 0.000000 0.000000 2.650001
v -1.149792 0.000000 2.387568
v -2.071854 0.000000 1.652249
v -2.583561 0.000000 0.589681
v -2.583557 0.000000 -0.589680
v -2.071854 0.000000 -1.652249
v -1.149796 0.000000 -2.387567
v 0.000000 0.000000 -2.650001
v 1.149792 0.000000 -2.387567
v 2.071857 0.000000 -1.652249
v 2.583561 0.000000 -0.589680
v 2.583561 0.000000 0.589681
v 2.071850 0.000000 1.652249
v 1.149792 0.000000 2.387568
vt -0.418509 0.511439
vt -0.418509 0.488047
vt 1.692214 0.003881
vt -0.767271 0.995606
vt -0.520995 0.488047
vt -0.520995 0.511439
vt -0.446946 0.547100
vt -0.428657 0.532515
vt -0.469752 0.552304
vt -0.446946 0.452387
vt -0.469752 0.447182
vt -0.767270 0.003879
vt -0.492558 0.547100
vt -0.428657 0.466972
vt 1.692213 0.995608
vt -0.492558 0.452387
vt -0.510846 0.466972
vt -0.510846 0.532515
vn 0.000000 1.000000 0.000000
s off
f 8/1/1 9/2/1 4/3/1
f 1/4/1 15/5/1 16/6/1
f 6/7/1 7/8/1 1/4/1
f 1/4/1 5/9/1 6/7/1
f 11/10/1 12/11/1 2/12/1
f 18/13/1 5/9/1 1/4/1
f 10/14/1 11/10/1 2/12/1
f 7/8/1 3/15/1 1/4/1
f 10/14/1 2/12/1 4/3/1
f 4/3/1 3/15/1 8/1/1
f 9/2/1 10/14/1 4/3/1
f 2/12/1 12/11/1 13/16/1
f 3/15/1 7/8/1 8/1/1
f 2/12/1 13/16/1 14/17/1
f 17/18/1 18/13/1 1/4/1
f 14/17/1 15/5/1 2/12/1
f 16/6/1 17/18/1 1/4/1
f 15/5/1 1/4/1 2/12/1
o Plane.001
v -159.000000 0.000000 130.000000
v -109.000000 0.000000 130.000000
v -159.000000 0.000000 -25.000000
v -109.000000 0.000000 -25.000000
vt 0.983007 0.009045
vt 0.983007 3.033213
vt 0.007469 3.033213
vt 0.007469 0.009045
vn 0.000000 1.000000 0.000000
s off
f 20/19/2 22/20/2 21/21/2
f 19/22/2 20/19/2 21/21/2
