# Blender v2.70 (sub 0) OBJ File: 'sky.blend'
# www.blender.org
o Icosphere
v 690.969971 1118.047363 2126.623047
v -1809.018433 1118.046753 1314.313232
v -1809.018433 1118.046753 -1314.313232
v 690.969971 1118.047363 -2126.623047
v 2236.065430 1118.036865 0.000000
v 0.000000 2499.995117 0.000000
v 2391.564453 627.872437 369.045868
v 2377.645020 -0.000045 772.531616
v 2377.644775 0.000045 -772.531616
v 2391.564453 627.872437 -369.045868
v 388.037720 627.877563 2388.554932
v 0.000000 -0.000045 2500.000000
v 1469.464111 0.000045 2022.541992
v 1090.016968 627.878845 2160.469727
v -2151.744141 627.875916 1107.143799
v -2377.644775 -0.000045 772.531616
v -1469.464111 0.000045 2022.541992
v -1717.896606 627.878662 1704.288330
v -1717.896606 627.878662 -1704.288330
v -1469.464111 -0.000045 -2022.541992
v -2377.645020 0.000045 -772.531616
v -2151.744141 627.875854 -1107.143677
v 1090.016968 627.878845 -2160.469727
v 1469.464111 -0.000045 -2022.541992
v 0.000000 0.000045 -2500.000000
v 388.037720 627.877563 -2388.554932
v 2077.626465 1255.744263 597.133545
v 1720.473389 1314.338013 1249.992310
v 1209.928467 1255.751709 1791.411255
v 74.098175 1255.752441 2160.460449
v -657.172180 1314.341797 2022.529419
v -1329.852295 1255.751831 1704.281006
v -2031.823120 1255.749146 738.094360
v -2126.619629 1314.337280 0.000000
v -2031.823120 1255.749146 -738.094360
v -1329.852295 1255.751831 -1704.281006
v -657.172119 1314.341797 -2022.529419
v 74.098213 1255.752441 -2160.460449
v 1209.928467 1255.751709 -1791.411255
v 1720.473511 1314.338013 -1249.992188
v 2077.626709 1255.744263 -597.133484
v 194.016632 2419.869629 597.131836
v 406.138916 2126.632080 1249.988281
v 582.053772 1643.794922 1791.407715
v 1883.604126 1643.783813 0.000000
v 1314.324341 2126.625000 0.000000
v 627.867432 2419.867920 0.000000
v -507.952301 2419.869385 369.044617
v -1063.306763 2126.631592 772.528564
v -1523.866577 1643.794067 1107.140991
v -507.952301 2419.869385 -369.044617
v -1063.306763 2126.631592 -772.528564
v -1523.866577 1643.794067 -1107.140991
v 194.016632 2419.869629 -597.131836
v 406.138916 2126.632080 -1249.988281
v 582.053772 1643.794922 -1791.407715
v 2500.000000 0.000000 0.000000
v 772.543030 0.000000 2377.641113
v -2022.546265 0.000000 1469.458130
v -2022.546387 -0.000000 -1469.458130
v 772.543030 -0.000000 -2377.641113
v 1677.050903 690.989075 1720.474731
v 2022.546509 -0.004828 1469.457275
v 2154.510254 690.984680 1063.307861
v -1118.039551 690.990906 2126.621094
v -772.542847 -0.001847 2377.641113
v -345.498077 690.990723 2377.637695
v -2368.033203 690.988342 -406.144073
v -2500.000000 0.001595 0.000966
v -2368.032471 690.990295 406.144775
v -345.496277 690.991333 -2377.637695
v -772.541199 -0.001217 -2377.641602
v -1118.037598 690.991699 -2126.621582
v 2154.510498 690.989136 -1063.304688
v 2022.548218 0.000000 -1469.455322
v 1677.051392 690.992004 -1720.472534
v 904.500793 2236.068848 657.157532
v 1118.022827 1809.025513 1314.320312
v 1595.483887 1809.021484 657.160278
v -345.493164 2236.070557 1063.298828
v -904.509155 1809.027100 1469.446289
v -131.973892 1809.027588 1720.462402
v -1118.024780 2236.068359 0.000000
v -1677.041626 1809.023926 -406.142548
v -1677.041626 1809.023926 406.142609
v -345.493225 2236.070557 -1063.298828
v -131.973938 1809.027588 -1720.462402
v -904.509216 1809.027100 -1469.445923
v 904.500793 2236.068848 -657.157532
v 1595.483887 1809.021484 -657.160278
v 1118.022949 1809.025513 -1314.320557
vt 0.638635 0.228870
vt 0.601957 0.300675
vt 0.694115 0.292818
vt 0.284820 0.284544
vt 0.341777 0.341616
vt 0.362782 0.251541
vt 0.228433 0.638244
vt 0.300313 0.601711
vt 0.221138 0.553899
vt 0.547399 0.801173
vt 0.534866 0.721522
vt 0.464927 0.782047
vt 0.800921 0.548165
vt 0.721296 0.535471
vt 0.757247 0.620690
vt 0.882415 0.502147
vt 0.864067 0.617241
vt 0.990120 0.423156
vt 0.989807 0.578276
vt 0.941874 0.725806
vt 0.620052 0.137144
vt 0.723844 0.190161
vt 0.578211 0.010300
vt 0.725643 0.058534
vt 0.851140 0.149711
vt 0.191841 0.273873
vt 0.274337 0.191544
vt 0.058275 0.274471
vt 0.149707 0.149158
vt 0.275204 0.057978
vt 0.189552 0.723374
vt 0.136745 0.619475
vt 0.148846 0.850589
vt 0.057922 0.724907
vt 0.009986 0.577377
vt 0.616348 0.864458
vt 0.501216 0.882573
vt 0.724758 0.942484
vt 0.577130 0.990120
vt 0.422008 0.990120
vt 0.798659 0.277899
vt 0.745306 0.375543
vt 0.942523 0.275306
vt 0.855634 0.389995
vt 0.781962 0.465655
vt 0.380899 0.147503
vt 0.457276 0.228419
vt 0.422891 0.009880
vt 0.505114 0.127958
vt 0.554305 0.221404
vt 0.127791 0.504520
vt 0.228348 0.456886
vt 0.009880 0.422058
vt 0.147587 0.380346
vt 0.251660 0.362439
vt 0.389119 0.855566
vt 0.374889 0.745210
vt 0.274256 0.942225
vt 0.277139 0.798366
vt 0.292269 0.693852
vt 0.803742 0.715506
vt 0.694389 0.694938
vt 0.850664 0.851527
vt 0.714736 0.804331
vt 0.620013 0.757645
vt 0.528609 0.444273
vt 0.500042 0.500199
vt 0.562059 0.510086
vt 0.563685 0.375602
vt 0.603694 0.447518
vt 0.650004 0.371906
vt 0.638209 0.522226
vt 0.692072 0.454674
vt 0.455681 0.455749
vt 0.401210 0.401168
vt 0.481969 0.385341
vt 0.424368 0.317933
vt 0.516084 0.303501
vt 0.444059 0.528653
vt 0.375316 0.563591
vt 0.385220 0.481894
vt 0.303311 0.515845
vt 0.317928 0.424158
vt 0.509803 0.562235
vt 0.521789 0.638409
vt 0.447151 0.603744
vt 0.454128 0.692135
vt 0.371446 0.649901
vt 0.582176 0.582499
vt 0.668398 0.603177
vt 0.602679 0.668762
vn -0.276376 -0.447218 -0.850642
vn -0.230781 -0.664968 -0.710288
vn -0.491531 -0.503800 -0.710288
vn 0.723594 -0.447218 -0.525712
vn 0.604205 -0.664968 -0.438978
vn 0.523637 -0.503800 -0.686972
vn 0.723594 -0.447218 0.525712
vn 0.604205 -0.664968 0.438978
vn 0.815180 -0.503800 0.285714
vn -0.276376 -0.447218 0.850642
vn -0.230781 -0.664968 0.710288
vn -0.019837 -0.503800 0.863552
vn -0.894406 -0.447188 0.000000
vn -0.746849 -0.664968 0.000000
vn -0.827418 -0.503800 0.247963
vn -0.957823 -0.243049 -0.153264
vn -0.957823 -0.243049 0.153264
vn -0.943217 -0.116881 -0.310936
vn -0.993881 -0.110453 0.000000
vn -0.943217 -0.116881 0.310936
vn -0.150212 -0.243049 -0.958281
vn -0.441725 -0.243049 -0.863582
vn 0.004251 -0.116882 -0.993137
vn -0.307126 -0.110454 -0.945237
vn -0.587191 -0.116882 -0.800965
vn 0.864986 -0.243049 -0.438978
vn 0.684805 -0.243049 -0.686972
vn 0.945844 -0.116881 -0.302850
vn 0.804068 -0.110454 -0.584187
vn 0.580313 -0.116882 -0.805963
vn 0.684805 -0.243049 0.686972
vn 0.864986 -0.243049 0.438978
vn 0.580313 -0.116882 0.805963
vn 0.804068 -0.110454 0.584187
vn 0.945844 -0.116881 0.302851
vn -0.441725 -0.243049 0.863582
vn -0.150212 -0.243049 0.958281
vn -0.587191 -0.116883 0.800965
vn -0.307126 -0.110454 0.945237
vn 0.004251 -0.116882 0.993137
vn -0.677206 -0.272408 -0.683493
vn -0.688162 -0.525712 -0.499985
vn -0.802334 -0.128281 -0.582927
vn -0.859310 -0.272408 -0.432844
vn -0.827418 -0.503800 -0.247963
vn 0.440748 -0.272408 -0.855251
vn 0.262856 -0.525712 -0.808985
vn 0.306464 -0.128282 -0.943198
vn 0.146123 -0.272408 -0.950987
vn -0.019837 -0.503800 -0.863552
vn 0.949614 -0.272408 0.154881
vn 0.850642 -0.525712 0.000000
vn 0.991738 -0.128283 -0.000000
vn 0.949614 -0.272408 -0.154881
vn 0.815180 -0.503800 -0.285714
vn 0.146123 -0.272408 0.950987
vn 0.262856 -0.525712 0.808985
vn 0.306464 -0.128283 0.943199
vn 0.440748 -0.272408 0.855251
vn 0.523637 -0.503800 0.686972
vn -0.859310 -0.272408 0.432844
vn -0.688162 -0.525712 0.499985
vn -0.802334 -0.128283 0.582926
vn -0.677206 -0.272408 0.683493
vn -0.491531 -0.503800 0.710288
vn -0.080569 -0.965392 -0.247963
vn 0.000000 -1.000000 0.000000
vn -0.260750 -0.965392 0.000000
vn -0.162450 -0.850642 -0.499985
vn -0.368206 -0.890408 -0.267495
vn -0.449629 -0.727531 -0.518143
vn -0.525712 -0.850642 0.000000
vn -0.631733 -0.727531 -0.267495
vn 0.210944 -0.965392 -0.153233
vn 0.425306 -0.850642 -0.309000
vn 0.140629 -0.890408 -0.432844
vn 0.353832 -0.727531 -0.587725
vn 0.059206 -0.727531 -0.683493
vn 0.210944 -0.965392 0.153233
vn 0.425306 -0.850642 0.309000
vn 0.455123 -0.890408 0.000000
vn 0.668325 -0.727531 0.154881
vn 0.668325 -0.727531 -0.154881
vn -0.080569 -0.965392 0.247963
vn -0.162450 -0.850642 0.499985
vn 0.140629 -0.890408 0.432844
vn 0.059206 -0.727531 0.683493
vn 0.353832 -0.727531 0.587725
vn -0.368206 -0.890408 0.267495
vn -0.631733 -0.727531 0.267495
vn -0.449629 -0.727531 0.518143
s 1
f 1/1/1 44/2/2 29/3/3
f 2/4/4 50/5/5 32/6/6
f 3/7/7 53/8/8 35/9/9
f 4/10/10 56/11/11 38/12/12
f 5/13/13 45/14/14 41/15/15
f 7/16/16 5/13/13 10/17/17
f 8/18/18 7/16/16 57/19/19
f 7/16/16 10/17/17 57/19/19
f 57/19/19 10/17/17 9/20/20
f 11/21/21 1/1/1 14/22/22
f 12/23/23 11/21/21 58/24/24
f 11/21/21 14/22/22 58/24/24
f 58/24/24 14/22/22 13/25/25
f 15/26/26 2/4/4 18/27/27
f 16/28/28 15/26/26 59/29/29
f 15/26/26 18/27/27 59/29/29
f 59/29/29 18/27/27 17/30/30
f 19/31/31 3/7/7 22/32/32
f 20/33/33 19/31/31 60/34/34
f 19/31/31 22/32/32 60/34/34
f 60/34/34 22/32/32 21/35/35
f 23/36/36 4/10/10 26/37/37
f 24/38/38 23/36/36 61/39/39
f 23/36/36 26/37/37 61/39/39
f 61/39/39 26/37/37 25/40/40
f 14/22/22 1/1/1 29/3/3
f 13/25/25 14/22/22 62/41/41
f 14/22/22 29/3/3 62/41/41
f 62/41/41 29/3/3 28/42/42
f 13/25/25 62/41/41 63/43/43
f 63/43/43 62/41/41 64/44/44
f 62/41/41 28/42/42 64/44/44
f 64/44/44 28/42/42 27/45/45
f 63/43/43 64/44/44 8/18/18
f 8/18/18 64/44/44 7/16/16
f 64/44/44 27/45/45 7/16/16
f 7/16/16 27/45/45 5/13/13
f 18/27/27 2/4/4 32/6/6
f 17/30/30 18/27/27 65/46/46
f 18/27/27 32/6/6 65/46/46
f 65/46/46 32/6/6 31/47/47
f 17/30/30 65/46/46 66/48/48
f 66/48/48 65/46/46 67/49/49
f 65/46/46 31/47/47 67/49/49
f 67/49/49 31/47/47 30/50/50
f 66/48/48 67/49/49 12/23/23
f 12/23/23 67/49/49 11/21/21
f 67/49/49 30/50/50 11/21/21
f 11/21/21 30/50/50 1/1/1
f 22/32/32 3/7/7 35/9/9
f 21/35/35 22/32/32 68/51/51
f 22/32/32 35/9/9 68/51/51
f 68/51/51 35/9/9 34/52/52
f 21/35/35 68/51/51 69/53/53
f 69/53/53 68/51/51 70/54/54
f 68/51/51 34/52/52 70/54/54
f 70/54/54 34/52/52 33/55/55
f 69/53/53 70/54/54 16/28/28
f 16/28/28 70/54/54 15/26/26
f 70/54/54 33/55/55 15/26/26
f 15/26/26 33/55/55 2/4/4
f 26/37/37 4/10/10 38/12/12
f 25/40/40 26/37/37 71/56/56
f 26/37/37 38/12/12 71/56/56
f 71/56/56 38/12/12 37/57/57
f 25/40/40 71/56/56 72/58/58
f 72/58/58 71/56/56 73/59/59
f 71/56/56 37/57/57 73/59/59
f 73/59/59 37/57/57 36/60/60
f 72/58/58 73/59/59 20/33/33
f 20/33/33 73/59/59 19/31/31
f 73/59/59 36/60/60 19/31/31
f 19/31/31 36/60/60 3/7/7
f 10/17/17 5/13/13 41/15/15
f 9/20/20 10/17/17 74/61/61
f 10/17/17 41/15/15 74/61/61
f 74/61/61 41/15/15 40/62/62
f 9/20/20 74/61/61 75/63/63
f 75/63/63 74/61/61 76/64/64
f 74/61/61 40/62/62 76/64/64
f 76/64/64 40/62/62 39/65/65
f 75/63/63 76/64/64 24/38/38
f 24/38/38 76/64/64 23/36/36
f 76/64/64 39/65/65 23/36/36
f 23/36/36 39/65/65 4/10/10
f 42/66/66 6/67/67 47/68/68
f 43/69/69 42/66/66 77/70/70
f 44/2/2 43/69/69 78/71/71
f 42/66/66 47/68/68 77/70/70
f 77/70/70 47/68/68 46/72/72
f 43/69/69 77/70/70 78/71/71
f 78/71/71 77/70/70 79/73/73
f 77/70/70 46/72/72 79/73/73
f 79/73/73 46/72/72 45/14/14
f 44/2/2 78/71/71 29/3/3
f 29/3/3 78/71/71 28/42/42
f 78/71/71 79/73/73 28/42/42
f 28/42/42 79/73/73 27/45/45
f 79/73/73 45/14/14 27/45/45
f 27/45/45 45/14/14 5/13/13
f 48/74/74 6/67/67 42/66/66
f 49/75/75 48/74/74 80/76/76
f 50/5/5 49/75/75 81/77/77
f 48/74/74 42/66/66 80/76/76
f 80/76/76 42/66/66 43/69/69
f 49/75/75 80/76/76 81/77/77
f 81/77/77 80/76/76 82/78/78
f 80/76/76 43/69/69 82/78/78
f 82/78/78 43/69/69 44/2/2
f 50/5/5 81/77/77 32/6/6
f 32/6/6 81/77/77 31/47/47
f 81/77/77 82/78/78 31/47/47
f 31/47/47 82/78/78 30/50/50
f 82/78/78 44/2/2 30/50/50
f 30/50/50 44/2/2 1/1/1
f 51/79/79 6/67/67 48/74/74
f 52/80/80 51/79/79 83/81/81
f 53/8/8 52/80/80 84/82/82
f 51/79/79 48/74/74 83/81/81
f 83/81/81 48/74/74 49/75/75
f 52/80/80 83/81/81 84/82/82
f 84/82/82 83/81/81 85/83/83
f 83/81/81 49/75/75 85/83/83
f 85/83/83 49/75/75 50/5/5
f 53/8/8 84/82/82 35/9/9
f 35/9/9 84/82/82 34/52/52
f 84/82/82 85/83/83 34/52/52
f 34/52/52 85/83/83 33/55/55
f 85/83/83 50/5/5 33/55/55
f 33/55/55 50/5/5 2/4/4
f 54/84/84 6/67/67 51/79/79
f 55/85/85 54/84/84 86/86/86
f 56/11/11 55/85/85 87/87/87
f 54/84/84 51/79/79 86/86/86
f 86/86/86 51/79/79 52/80/80
f 55/85/85 86/86/86 87/87/87
f 87/87/87 86/86/86 88/88/88
f 86/86/86 52/80/80 88/88/88
f 88/88/88 52/80/80 53/8/8
f 56/11/11 87/87/87 38/12/12
f 38/12/12 87/87/87 37/57/57
f 87/87/87 88/88/88 37/57/57
f 37/57/57 88/88/88 36/60/60
f 88/88/88 53/8/8 36/60/60
f 36/60/60 53/8/8 3/7/7
f 47/68/68 6/67/67 54/84/84
f 46/72/72 47/68/68 89/89/89
f 45/14/14 46/72/72 90/90/90
f 47/68/68 54/84/84 89/89/89
f 89/89/89 54/84/84 55/85/85
f 46/72/72 89/89/89 90/90/90
f 90/90/90 89/89/89 91/91/91
f 89/89/89 55/85/85 91/91/91
f 91/91/91 55/85/85 56/11/11
f 45/14/14 90/90/90 41/15/15
f 41/15/15 90/90/90 40/62/62
f 90/90/90 91/91/91 40/62/62
f 40/62/62 91/91/91 39/65/65
f 91/91/91 56/11/11 39/65/65
f 39/65/65 56/11/11 4/10/10
