# Blender v2.70 (sub 0) OBJ File: 'greens.blend'
# www.blender.org
o Plane.002
v -12.500000 -0.226184 144.063080
v 12.500000 -0.226184 144.063080
v -12.500000 8.226185 125.936920
v 12.500000 8.226185 125.936920
vt 0.887876 0.038112
vt 0.887876 0.956641
vt 0.091498 0.956641
vt 0.091498 0.038112
vn 0.000000 0.906308 0.422618
s off
f 2/1/1 4/2/1 3/3/1
f 1/4/1 2/1/1 3/3/1
o Plane.001
v -25.000000 0.000000 85.000000
v 25.000000 0.000000 85.000000
v -25.000000 0.000000 -15.000000
v 25.000000 0.000000 -15.000000
v -2.583561 0.000000 -0.589680
v -2.071854 0.000000 -1.652248
v -1.149792 0.000000 -2.387569
v -0.000002 0.000000 -2.650002
v 1.149791 0.000000 -2.387569
v 2.071855 0.000000 -1.652248
v 2.583557 0.000000 -0.589684
v 2.583557 0.000000 0.589680
v 2.071855 0.000000 1.652245
v 1.149791 0.000000 2.387569
v -0.000002 0.000000 2.649998
v -1.149792 0.000000 2.387569
v -2.071854 0.000000 1.652245
v -2.583561 0.000000 0.589680
vt 0.498406 2.259864
vt 0.520527 2.253140
vt 0.979384 2.576307
vt 0.017428 0.014021
vt 0.979384 0.014021
vt 0.498406 2.124063
vt 0.017428 2.576307
vt 0.448700 2.207073
vt 0.458545 2.234299
vt 0.548111 2.207073
vt 0.548111 2.176854
vt 0.476285 2.253140
vt 0.538266 2.234299
vt 0.538266 2.149628
vt 0.448700 2.176854
vt 0.476285 2.130787
vt 0.458545 2.149628
vt 0.520527 2.130787
vn 0.000000 1.000000 0.000000
s off
f 12/5/2 13/6/2 8/7/2
f 5/8/2 6/9/2 19/10/2
f 7/11/2 9/12/2 10/13/2
f 15/14/2 16/15/2 8/7/2
f 7/11/2 10/13/2 11/16/2
f 14/17/2 15/14/2 8/7/2
f 11/16/2 12/5/2 7/11/2
f 13/6/2 14/17/2 8/7/2
f 16/15/2 17/18/2 8/7/2
f 12/5/2 8/7/2 7/11/2
f 22/19/2 9/12/2 7/11/2
f 5/8/2 20/20/2 21/21/2
f 21/21/2 22/19/2 7/11/2
f 6/9/2 17/18/2 18/22/2
f 7/11/2 5/8/2 21/21/2
f 6/9/2 18/22/2 19/10/2
f 17/18/2 6/9/2 8/7/2
f 20/20/2 5/8/2 19/10/2
o Plane
v -25.000000 0.000000 212.500000
v 25.000000 0.000000 212.500000
v -25.000000 0.000000 137.500000
v 25.000000 0.000000 137.500000
vt 0.012428 1.960975
vt 0.012428 0.019283
vt 0.984384 0.019283
vt 0.984384 1.960975
vn 0.000000 1.000000 0.000000
s off
f 24/23/3 26/24/3 25/25/3
f 23/26/3 24/23/3 25/25/3
