# Blender v2.70 (sub 0) OBJ File: 'walls.blend'
# www.blender.org
o Cube
v -26.000000 -2.500000 185.000000
v -26.000000 -2.500000 -15.000000
v -25.000000 -2.500000 -15.000000
v -25.000000 -2.500000 185.000000
v -26.000000 2.500000 185.000000
v -26.000000 2.500000 -15.000000
v -25.000000 2.500000 -15.000000
v -25.000000 2.500000 185.000000
vt -5.918644 0.966625
vt -5.918644 0.021668
vt 6.965186 0.021690
vt 6.965186 0.966647
vn -1.000000 0.000000 0.000000
vn 0.000000 0.000000 -1.000000
vn 1.000000 0.000000 0.000000
vn 0.000000 0.000000 1.000000
vn 0.000000 -1.000000 0.000000
vn 0.000000 1.000000 0.000000
s off
f 6/1/1 2/2/1 1/3/1
f 7/1/2 3/2/2 2/2/2
f 8/4/3 4/3/3 3/2/3
f 5/4/4 1/3/4 4/3/4
f 2/2/5 3/2/5 4/3/5
f 7/1/6 6/1/6 5/4/6
f 5/4/1 6/1/1 1/3/1
f 6/1/2 7/1/2 2/2/2
f 7/1/3 8/4/3 3/2/3
f 8/4/4 5/4/4 4/3/4
f 1/3/5 2/2/5 4/3/5
f 8/4/6 7/1/6 5/4/6
o Cube.001
v -26.000000 -2.500000 186.000000
v -26.000000 -2.500000 185.000000
v 26.000000 -2.500000 185.000000
v 26.000000 -2.500000 186.000000
v -26.000000 2.500000 186.000000
v -26.000000 2.500000 185.000000
v 26.000000 2.500000 185.000000
v 26.000000 2.500000 186.000000
vt -0.324264 0.941846
vt -0.324264 0.023264
vt 1.325451 0.941846
vt 1.325451 0.023264
vn -1.000000 0.000000 0.000000
vn 0.000000 0.000000 -1.000000
vn 1.000000 0.000000 0.000000
vn 0.000000 0.000000 1.000000
vn 0.000000 -1.000000 0.000000
vn 0.000000 1.000000 0.000000
s off
f 14/5/7 10/6/7 9/6/7
f 15/7/8 11/8/8 10/6/8
f 16/7/9 12/8/9 11/8/9
f 13/5/10 9/6/10 12/8/10
f 10/6/11 11/8/11 12/8/11
f 15/7/12 14/5/12 13/5/12
f 13/5/7 14/5/7 9/6/7
f 14/5/8 15/7/8 10/6/8
f 15/7/9 16/7/9 11/8/9
f 16/7/10 13/5/10 12/8/10
f 9/6/11 10/6/11 12/8/11
f 16/7/12 15/7/12 13/5/12
o Cube.002
v 25.000000 -2.500000 185.000000
v 25.000000 -2.500000 -15.000000
v 26.000000 -2.500000 -15.000000
v 26.000000 -2.500000 185.000000
v 25.000000 2.500000 185.000000
v 25.000000 2.500000 -15.000000
v 26.000000 2.500000 -15.000000
v 26.000000 2.500000 185.000000
vt 6.910486 0.972625
vt 6.910486 0.027364
vt -5.977504 0.027374
vt -5.977504 0.972635
vn -1.000000 0.000000 0.000000
vn 0.000000 0.000000 -1.000000
vn 1.000000 0.000000 0.000000
vn 0.000000 0.000000 1.000000
vn 0.000000 -1.000000 0.000000
vn 0.000000 1.000000 0.000000
s off
f 22/9/13 18/10/13 17/11/13
f 23/9/14 19/10/14 18/10/14
f 24/12/15 20/11/15 19/10/15
f 21/12/16 17/11/16 20/11/16
f 18/10/17 19/10/17 20/11/17
f 23/9/18 22/9/18 21/12/18
f 21/12/13 22/9/13 17/11/13
f 22/9/14 23/9/14 18/10/14
f 23/9/15 24/12/15 19/10/15
f 24/12/16 21/12/16 20/11/16
f 17/11/17 18/10/17 20/11/17
f 24/12/18 23/9/18 21/12/18
o Cube.003
v -26.000000 -2.500000 -15.000000
v -26.000000 -2.500000 -16.000000
v 26.000000 -2.500000 -16.000000
v 26.000000 -2.500000 -15.000000
v -26.000000 2.500000 -15.000000
v -26.000000 2.500000 -16.000000
v 26.000000 2.500000 -16.000000
v 26.000000 2.500000 -15.000000
vt -0.354536 0.963930
vt -0.354536 0.011839
vt 1.355360 0.963930
vt 1.355360 0.011839
vn -1.000000 0.000000 0.000000
vn 0.000000 0.000000 -1.000000
vn 1.000000 0.000000 0.000000
vn 0.000000 0.000000 1.000000
vn 0.000000 -1.000000 0.000000
vn 0.000000 1.000000 0.000000
s off
f 30/13/19 26/14/19 25/14/19
f 31/15/20 27/16/20 26/14/20
f 32/15/21 28/16/21 27/16/21
f 29/13/22 25/14/22 28/16/22
f 26/14/23 27/16/23 28/16/23
f 31/15/24 30/13/24 29/13/24
f 29/13/19 30/13/19 25/14/19
f 30/13/20 31/15/20 26/14/20
f 31/15/21 32/15/21 27/16/21
f 32/15/22 29/13/22 28/16/22
f 25/14/23 26/14/23 28/16/23
f 32/15/24 31/15/24 29/13/24
